<svg xmlns="http://www.w3.org/2000/svg" width="1122.52" height="793.701" viewBox="0 0 841.89 595.276"><path fill="#C9DDF2" d="m528.453 109.68 16.246 16.25C387.395 243.352 348.25 423.555 348.25 423.555l-24.371-5.91-.738 98.96h369.261l4.801-4.796s66.098 20.308 92.684-28.434c26.59-48.742-5.168-87.148-23.63-97.488-18.464-10.336 0 0 0 0l48.47-80.645S769.949 230.797 678.37 159.16l-24.387 17.942-51.68-94.008-43.855 1.504-30.199 23.37-14.648-16.804"/><path fill="#FFFABC" d="M333.945 545.586h-112.23v-28.961h112.23Zm424.758-116.777 13.758-5.118s12.523 31.395-5.82 51.68c-18.344 20.281-34.746 18.52-34.746 18.52l-4.235-14.641s21.52-18.168 31.043-50.441"/><path fill="none" stroke="#231916" stroke-width="2.844" d="M77.36 148.668v171.36m37.156-171.738v87.194H87.219m8.718.379v106.532h86.438V309.41s21.23-15.922 73.547-24.262h34.496"/><path fill="none" stroke="#231916" stroke-width="2.844" d="M282.84 284.77v22.367h36.012s42.84-73.168 51.18-79.992"/><path fill="none" stroke="#231916" stroke-width="2.844" d="M297.621 305.621s15.926-49.664 79.234-114.871l-29.949-27.672V147.91H96.316v72.41m271.442 17.82s39.808-59.523 54.594-69.757m-6.067 18.577S469.36 116.825 550.11 63.372"/><path fill="none" stroke="#231916" stroke-width="2.899" d="M223.441 498.813v16.835h16.34"/><path fill="none" stroke="#231916" stroke-width="3.98" d="M258.75 515.648h179.144m8.719 0h61.414m-7.582 1.895h191.832l6.063-9.86m67.672-118.562 48.715-83.879s-51.938-85.68-135.34-144.441l-5.309 3.793M545.562 67.918l12.887 16.684h43.598l51.937 92.5 6.446-3.41m-.758 13.268 109.941 196.38"/><path fill="none" stroke="#231916" stroke-width="3.98" d="M766.895 387.605c19.746 12.364 32.875 34.31 32.875 59.325 0 38.629-31.317 69.945-69.946 69.945-11.785 0-22.894-2.918-32.636-8.066"/><path fill="none" stroke="#231916" stroke-width="3.412" d="M752.586 487.898c-7.473 4.442-16.203 6.993-25.527 6.993a49.8 49.8 0 0 1-29.2-9.399m77.922-29.176c-2.386 10.172-7.875 19.153-15.414 25.88m-10.926-82.118c15.918 7.977 26.996 24.192 27.63 43.055q.03.854.03 1.715m-17.628-22.746s-3.696 34.972-37.817 62.27m37.246-56.298 13.082-3.98M728.48 479.82l3.13 13.649"/><path fill="none" stroke="#231916" stroke-width="1.138" d="M77.543 177.73h36.805m-36.805 5.836h36.805m-36.805 5.836h36.805m-36.805 5.832h36.805m-36.805 5.836h36.805m-36.805 5.836h36.805m-36.805 5.832h36.805m-36.805 5.836h36.805m-36.805 22.668h18.629m-18.629 5.832h18.629m-18.629 5.836h18.629m-18.629 5.836h18.629m-18.629 5.836h18.629m-18.629 5.832h18.629m-18.629 5.836h18.629m-18.629 5.836h18.629M77.543 299.59h18.629m-18.629 5.836h18.629m-18.629 5.832h18.629m-18.629 5.836h18.629m165.765-31.734v56.37m-5.027-56.37v56.37m-5.027-56.37v56.37m-5.031-56.37v56.37m-5.028-54.238v54.238m-5.027-53.171v53.171m-5.027-51.648v51.648m-5.028-50.277v50.277m-5.027-49.21v49.21m-5.027-47.23v47.23m-5.028-45.707v45.707m-5.027-44.183v44.183m-5.028-41.898v41.898"/><path fill="none" stroke="#231916" stroke-width="2.274" d="M183.016 341.23h79.988"/><path fill="none" stroke="#231916" stroke-width="1.138" d="M201.66 321.348h60.297v-16.114h-7.695s-34.2 6.032-52.602 16.114Zm0 0"/><path fill="none" stroke="#231916" stroke-width="2.274" d="M239.824 341.426v7.469m0 10.968v7.465h-29.539s-23.613-5.941-24.832-25.598"/><path fill="none" stroke="#231916" stroke-width="1.138" d="M234.074 359.68h-11.2v-11.2h11.2Zm-.364-10.89-10.58 10.58m-.08-11.046 11.087 11.086"/><path fill="#231916" stroke="#231916" stroke-width="1.138" d="M218.059 341.426v25.75l-7.774.152s-26.965-8.836-24.527-26.207Zm0 0"/><path fill="none" stroke="#231916" stroke-width="2.274" d="M223.238 368.09v16.148m0 16.457v33.063m0 16.148v33.063"/><path fill="none" stroke="#231916" stroke-width="1.137" d="M333.945 536.465v8.254m0-28.375v8.25"/><path fill="none" stroke="#231916" stroke-width="2.274" d="M223.238 515.027v9.614m0 12.738v9.61m99.902-133.774V514.39"/><path fill="none" stroke="#231916" stroke-width="3.412" d="m324.156 470.707 14.086 2.691-6.008 41.43m141.532-324.254c20.941-23.285 45.109-45.582 72.921-65.418m-87.98 82.977a558 558 0 0 1 3.195-3.871m-37.488 51.008a532 532 0 0 1 25.07-35.512m-30.226 43.625q1.037-1.66 2.086-3.324m-24.621 42.918a580 580 0 0 1 18.246-32.594m-26.871 49.887a528 528 0 0 1 2.129-4.399m-42.192 115.606s8.594-41.493 33.61-97.282m-58.505 86.403 9.602.738m83.708-247.164 5.382 4.957m-55.359 52.559 3.879 1.937m130.535-133.121 2.691 2.695m10.664 12.817 2.692 2.691s31.34-25.738 44.265-33.496m3.446 10.125h42.648"/><path fill="none" stroke="#231916" stroke-width="1.138" d="m510.793 93.184 14.648 16.8m-9.031-20.836 14.649 16.801m-11.985-18.961 14.649 16.801m-11.911-18.891 14.649 16.805m-11.875-18.855 14.648 16.8M527.43 80.867l14.648 16.801m-12.414-19.395 14.645 16.801m-11.766-18.746 14.648 16.8m-29.007 8.712 22.109-17.07"/><path fill="none" stroke="#231916" stroke-width="2.274" d="M417.645 515.996v28.723"/><path fill="none" stroke="#231916" stroke-width="1.138" d="M399.562 515.785v29.781M547.2 515.785v29.781h-37.227m33.824-29.781v29.781m-3.402-29.781v29.781m-3.407-29.781v29.781m-3.402-29.781v29.781m-139.129-29.781v29.781m-5.105-29.781v29.781m-5.106-29.781v29.781m-5.106-29.781v29.781m-5.105-29.781v29.781m-5.105-29.781v29.781m-5.11-29.781v29.781m-5.105-29.781v29.781m-5.105-29.781v29.781m-.212-14.007h46.375"/><path fill="none" stroke="#231916" stroke-width="3.412" d="m509.121 519.187.02 26.301H223.606"/><path fill="none" stroke="#231916" stroke-width="1.138" d="M223.238 546.867h-91.312v-30.336h98.265m-44.113-172.996v112.48l-18.605-74.71h-11.664v134.957m7.218.832V411.086m5.555 105.176v-82.824m-1.109-90.735v38.602m6.664-38.602v64.453m5.554-63.621v86.64"/><path fill="none" stroke="#231916" stroke-width="1.138" d="m155.809 381.3 18.328 75.259v59.703m12.367-60.539h-12.367M161.68 381.66l18.308 73.567m619.059-9.805h-11.953s-.02 1.805-.364 4.77c-1.117 9.703-5.683 31.847-24.273 43.956l5.883 9.747m30.707-53.875-12.317.171m-.738 5.344 11.953 1.285m-12.871 3.496 11.399 2.387m-12.871 2.945 11.214 3.86m-12.871 1.105 10.485 4.778m-12.871.187 10.476 5.332m-12.871-1.289 9.195 6.805m-12.687-2.024 8.828 7.172m-12.137-3.492 9.196 8.64m-13.059-4.964 7.172 8.09"/><path fill="#FFF" stroke="#FFF" stroke-width="2.274" d="M259.54 526.25v-8.059h5.636v1.989h-3.293v1.293h2.633v1.933h-2.633v2.844Zm10.741-.012h-2.11v-4.593h-1.632v-1.594q.511-.007.895-.137.382-.129.593-.316.216-.19.368-.473.22-.398.289-.812h1.597Zm0 0"/><path fill="#FFF" d="M275.79 524.64a.78.78 0 0 0 .5-.183c.147-.121.265-.348.35-.672q.165-.643.165-1.633c0-.504-.043-.925-.118-1.27q-.117-.51-.351-.706a.82.82 0 0 0-.535-.196.72.72 0 0 0-.653.368q-.356.58-.355 1.922c0 .644.055 1.16.156 1.546.078.301.188.512.34.637a.76.76 0 0 0 .5.188m.055-6.414q.832 0 1.394.316.563.322.938.926.37.597.535 1.336.166.732.168 1.523 0 1.22-.352 2.18c-.234.64-.586 1.12-1.062 1.449q-.709.487-1.676.488-1.376-.001-2.16-.968c-.606-.75-.91-1.786-.91-3.098q-.002-1.06.297-2.04.292-.973 1.007-1.542c.473-.383 1.082-.57 1.82-.57"/><path fill="none" stroke="#FFF" stroke-width="2.274" d="M275.79 524.64a.78.78 0 0 0 .5-.183c.147-.121.265-.348.35-.672q.165-.643.165-1.633c0-.504-.043-.925-.118-1.27q-.117-.51-.351-.706a.82.82 0 0 0-.535-.196.72.72 0 0 0-.653.368q-.356.58-.355 1.922c0 .644.055 1.16.156 1.546.078.301.188.512.34.637a.76.76 0 0 0 .5.188Zm.054-6.413q.832 0 1.394.316.563.322.938.926.37.598.535 1.336.167.732.168 1.523 0 1.22-.352 2.18c-.234.64-.586 1.12-1.062 1.449q-.709.487-1.676.488-1.376-.001-2.16-.968c-.606-.75-.91-1.786-.91-3.098q-.002-1.06.297-2.04.292-.973 1.007-1.542c.473-.383 1.082-.57 1.82-.57Zm0 0"/><path fill="#FFF" d="M281.629 521.508h-1.887q.001-1.576.781-2.43.782-.85 2.207-.851.645 0 1.196.175.545.181.902.508.353.334.559.797.21.464.21 1.074.002.487-.144.864-.14.379-.41.695-.265.311-1.035.863-.13.094-1.715 1.149h3.293v1.894h-5.973q-.001-.574.133-1.023c.086-.301.223-.578.399-.832q.269-.387.812-.88c.281-.25.707-.59 1.281-1.011.57-.426.926-.738 1.063-.95q.2-.308.199-.671.001-.398-.227-.645-.227-.241-.636-.242a.88.88 0 0 0-.594.203q-.24.209-.336.559-.076.26-.078.754"/><path fill="none" stroke="#FFF" stroke-width="2.274" d="M281.629 521.508h-1.887q.001-1.576.781-2.43.782-.85 2.207-.851.645 0 1.196.175.545.181.902.508.352.334.559.797.21.464.21 1.074.001.487-.144.864-.14.379-.41.695-.266.312-1.035.863-.13.094-1.715 1.149h3.293v1.894h-5.973q-.001-.574.133-1.023c.086-.301.223-.578.399-.832q.269-.387.812-.88c.281-.25.707-.59 1.281-1.011.57-.426.926-.738 1.063-.95q.2-.309.199-.671.001-.398-.227-.645-.227-.241-.636-.242a.88.88 0 0 0-.594.203q-.24.209-.336.559-.077.26-.078.754Zm0 0"/><path fill="#FFF" stroke="#FFF" stroke-width="2.274" d="M257.43 533.531h1.09v1.614h-1.09v3.753h-1.996v-7.843h1.996Zm-4.696-.703h-1.355v2.742h1.355Zm4.918 8.762-6.32.012q-.608 0-.977-.375a1.3 1.3 0 0 1-.367-.946v-2.484h2.055v2.183h5.61Zm-2.914-4.399h-4.047q-.625.002-.992-.367c-.242-.242-.363-.57-.363-.976v-4.63h5.402Zm13.496-2.347h1.09v1.62h-1.09v5.411h-2.007v-1.898h-4.735q-.62-.002-.988-.368-.365-.368-.367-.988v-7.41h2.047v7.14h4.043v-7.296h2.007Zm0 0"/><path fill="#FFF" d="M274.836 534.309q0-.798-.246-1.301c-.164-.332-.39-.5-.688-.5q-.446.001-.687.5-.246.505-.246 1.3 0 .799.246 1.297.24.504.687.504.444 0 .688-.504.246-.499.246-1.296m2.441 4.046v-7.296h2.036v10.816h-2.036v-1.91h-6.328v-1.61Zm-.43-4.023q.002 1.358-.859 2.316c-.57.641-1.273.961-2.101.961-.82 0-1.52-.316-2.098-.957q-.862-.954-.863-2.32.001-1.365.863-2.32.867-.956 2.098-.957 1.23 0 2.097.957c.579.636.864 1.41.864 2.32"/><path fill="none" stroke="#FFF" stroke-width="2.274" d="M274.836 534.309q0-.798-.246-1.301c-.164-.332-.39-.5-.688-.5q-.446.001-.687.5-.246.505-.246 1.3 0 .798.246 1.297.24.504.687.504.444 0 .688-.504.246-.499.246-1.296Zm2.441 4.046v-7.296h2.035v10.816h-2.035v-1.91h-6.328v-1.61Zm-.43-4.023q.001 1.358-.859 2.316c-.57.641-1.273.961-2.101.961-.82 0-1.52-.316-2.098-.957q-.862-.954-.863-2.32.001-1.365.863-2.32.867-.956 2.098-.957 1.23 0 2.097.957.865.954.864 2.32Zm0 0"/><path fill="#FFF" stroke="#FFF" stroke-width="2.274" d="M295.23 536.656h-2.027v-5.601h2.027Zm-2.027 2.606h-3.527v.71h3.527Zm2.027 2.328h-6.207c-.41 0-.734-.121-.984-.363-.25-.243-.371-.563-.371-.973v-3.266h2.008v.711h3.527v-.71h2.027Zm-6.543-8.785h-1.777v-1.61h5.688v1.61h-1.864v.078q0 1.022.93 1.808c.363.313.844.594 1.434.844q-.197.258-.524.856l-.277.547a42 42 0 0 1-1.207-.7 8 8 0 0 1-1.29-.98q-.344.392-.902.8c-.265.192-.78.524-1.554.989-.125-.223-.223-.395-.285-.52q-.37-.655-.512-.879a4.5 4.5 0 0 0 1.363-1q.778-.832.777-1.765Zm0 0"/><path fill="#1D2088" d="M259.54 526.25v-8.059h5.636v1.989h-3.293v1.293h2.633v1.933h-2.633v2.844Zm10.741-.012h-2.11v-4.593h-1.632v-1.594q.511-.007.895-.137.381-.129.593-.316.216-.19.368-.473.22-.398.289-.812h1.597Zm5.509-1.598a.78.78 0 0 0 .5-.183c.147-.121.265-.348.35-.672q.165-.643.165-1.633c0-.504-.043-.925-.118-1.27q-.117-.51-.351-.706a.82.82 0 0 0-.535-.196.72.72 0 0 0-.653.368q-.356.58-.355 1.922c0 .644.055 1.16.156 1.546.078.301.188.512.34.637a.76.76 0 0 0 .5.188m.055-6.414q.832 0 1.394.316.563.322.938.926.37.597.535 1.336.166.732.168 1.523 0 1.22-.352 2.18c-.234.64-.586 1.12-1.062 1.449q-.709.487-1.676.488-1.376-.001-2.16-.968c-.606-.75-.91-1.786-.91-3.098q-.002-1.06.297-2.04.292-.973 1.007-1.542c.473-.383 1.082-.57 1.82-.57m5.786 3.281h-1.887q.001-1.576.781-2.43.782-.85 2.207-.851.645 0 1.196.175.545.181.902.508.353.334.559.797.21.464.21 1.074.002.487-.144.864-.14.379-.41.695-.265.311-1.035.863-.13.094-1.715 1.149h3.293v1.894h-5.973q-.001-.574.133-1.023c.086-.301.223-.578.399-.832q.269-.387.812-.88c.281-.25.707-.59 1.281-1.011.57-.426.926-.738 1.063-.95q.2-.308.199-.671.001-.398-.227-.645-.227-.241-.636-.242a.88.88 0 0 0-.594.203q-.24.209-.336.559-.076.26-.078.754m-24.199 12.023h1.09v1.614h-1.09v3.753h-1.996v-7.843h1.996Zm-4.696-.703h-1.355v2.742h1.355Zm4.918 8.762-6.32.012q-.608 0-.977-.375a1.3 1.3 0 0 1-.367-.946v-2.484h2.055v2.183h5.61Zm-2.914-4.399h-4.047q-.625.002-.992-.367c-.242-.242-.363-.57-.363-.976v-4.63h5.402Zm13.496-2.347h1.09v1.62h-1.09v5.411h-2.007v-1.898h-4.735q-.62-.002-.988-.368c-.242-.246-.367-.574-.367-.988v-7.41h2.047v7.14h4.043v-7.296h2.007Zm6.602-.535q0-.798-.246-1.301c-.164-.332-.39-.5-.688-.5q-.446.001-.687.5-.246.505-.246 1.3 0 .799.246 1.297.24.504.687.504.444 0 .688-.504.246-.499.246-1.296m2.441 4.046v-7.296h2.036v10.816h-2.036v-1.91h-6.328v-1.61Zm-.43-4.023q.002 1.358-.859 2.316c-.57.641-1.273.961-2.101.961-.82 0-1.52-.316-2.098-.957q-.862-.954-.863-2.32.001-1.365.863-2.32.867-.956 2.098-.957 1.23 0 2.097.957c.579.636.864 1.41.864 2.32m18.382 2.324h-2.027v-5.601h2.027Zm-2.027 2.606h-3.527v.71h3.527Zm2.027 2.328h-6.207c-.41 0-.734-.121-.984-.363-.25-.243-.371-.563-.371-.973v-3.266h2.008v.711h3.527v-.71h2.027Zm-6.543-8.785h-1.777v-1.61h5.688v1.61h-1.864v.078q0 1.022.93 1.808c.363.313.844.594 1.434.844q-.197.258-.524.856l-.277.547a42 42 0 0 1-1.207-.7 8 8 0 0 1-1.29-.98q-.344.392-.902.8c-.265.192-.78.524-1.554.989-.125-.223-.223-.395-.285-.52q-.37-.655-.512-.879a4.5 4.5 0 0 0 1.363-1q.779-.832.777-1.765Zm0 0"/><path fill="#00307C" stroke="#FFF" stroke-width="2.096" d="M726.508 428.66c.035-.402.047-.722.047-1.125v-5.234c0-.41-.012-.746-.047-1.156h2.836c.36 0 .574 0 .937-.04l-.11 1.098c-.355-.05-.55-.039-.901-.039h-1.57v2.055h1.01c.356 0 .622 0 .977-.04v1.075c-.363-.04-.613-.04-.976-.04h-1.012v2.31c0 .421.016.734.043 1.136Zm6.226 0c.047-.45.04-.95.04-1.39v-4.56a5.7 5.7 0 0 1-1.22.685l-.343-.782c.531-.234 1.394-.812 1.906-1.418h.801v6.086c0 .45 0 .918.035 1.38Zm0 0"/><path fill="#00307C" d="M739.996 424.895c0-.434 0-1.145-.156-1.754-.16-.586-.465-1.094-1.063-1.094-.586 0-.89.535-1.039 1.16-.16.637-.168 1.383-.168 1.793 0 .43.008 1.137.176 1.742.149.617.457 1.113 1.05 1.113.579 0 .884-.527 1.032-1.171.16-.625.168-1.372.168-1.79m1.2.06c0 .847-.15 1.808-.512 2.562-.371.742-.977 1.261-1.895 1.261-.95 0-1.555-.507-1.914-1.242-.375-.754-.504-1.703-.504-2.582 0-.902.14-1.86.512-2.594.37-.734.976-1.254 1.906-1.254.945 0 1.55.508 1.922 1.235.355.734.484 1.691.484 2.613"/><path fill="none" stroke="#FFF" stroke-width="2.096" d="M739.996 424.895c0-.434 0-1.145-.156-1.754-.16-.586-.465-1.094-1.063-1.094-.586 0-.89.535-1.039 1.16-.16.637-.168 1.383-.168 1.793 0 .43.008 1.137.176 1.742.149.617.457 1.113 1.05 1.113.579 0 .884-.527 1.032-1.171.16-.625.168-1.372.168-1.79Zm1.2.058c0 .848-.15 1.809-.512 2.563-.372.742-.977 1.261-1.895 1.261-.95 0-1.555-.507-1.914-1.242-.375-.754-.504-1.703-.504-2.582 0-.902.14-1.86.512-2.594.37-.734.976-1.254 1.906-1.254.945 0 1.55.508 1.922 1.235.355.734.484 1.691.484 2.613Zm0 0"/><path fill="#00307C" stroke="#FFF" stroke-width="2.096" d="M746.828 427.191c-.371-.046-.707-.046-.836-.058v.715c0 .37-.008.566.04.937h-1.184c.047-.36.039-.566.039-.93v-.722s-.29.012-.41.012h-2.602v-.864l2.082-4.324c.188-.39.309-.637.438-1.027h1.226c-.25.402-.351.636-.55 1.058l-1.497 3.246a7 7 0 0 1-.511.93c.175-.02.625-.027.707-.027h1.117v-2.828l1.105-.11v2.938c.168-.012.559 0 .836-.04Zm0 0"/><path fill="#00307C" d="M719.824 434.484v1.059h.36c.273 0 .59 0 .859-.047v1.559c-.258-.051-.574-.051-.836-.051h-.383v1.512c0 .402 0 .796.047 1.199h-1.695a11 11 0 0 0 .054-1.2v-4.03c0-.403-.011-.794-.054-1.2h1.695c-.047.406-.047.797-.047 1.2m-3.476 8.25c1.218 0 1.984-.32 1.984-.82 0-.497-.766-.806-1.984-.806-1.278 0-2.024.309-2.024.805 0 .5.746.82 2.024.82m-2.914-5.218h1.941v-1.235h-1.941Zm-.848 4.386c0-1.222 1.285-2.152 3.762-2.152 2.46 0 3.77.93 3.77 2.152 0 1.25-1.298 2.153-3.77 2.153-2.477 0-3.762-.903-3.762-2.153m4.371-7.367v4.422h-5.105v-4.422c0-.36 0-.656-.047-1.012h1.672c-.043.356-.043.653-.043 1.012v.356h1.941v-.356c0-.36 0-.656-.047-1.012H717c-.043.356-.043.653-.043 1.012"/><path fill="none" stroke="#FFF" stroke-width="2.096" d="M719.824 434.484v1.059h.36c.273 0 .59 0 .859-.047v1.559c-.258-.051-.574-.051-.836-.051h-.383v1.512c0 .402 0 .796.047 1.199h-1.695a11 11 0 0 0 .054-1.2v-4.03c0-.403-.011-.794-.054-1.2h1.695c-.047.406-.047.797-.047 1.2Zm-3.476 8.25c1.218 0 1.984-.32 1.984-.82 0-.496-.766-.805-1.984-.805-1.278 0-2.024.309-2.024.805 0 .5.746.82 2.024.82Zm-2.914-5.218h1.941v-1.235h-1.941Zm-.848 4.386c0-1.222 1.285-2.152 3.762-2.152 2.46 0 3.77.93 3.77 2.152 0 1.25-1.298 2.153-3.77 2.153-2.477 0-3.762-.903-3.762-2.153Zm4.371-7.367v4.422h-5.105v-4.422c0-.36 0-.656-.047-1.012h1.672c-.043.356-.043.653-.043 1.012v.356h1.941v-.356c0-.36 0-.656-.047-1.012H717c-.043.356-.043.653-.043 1.012Zm0 0"/><path fill="#00307C" d="M724.293 442.07c0 .438.734.688 2.008.688 1.254 0 2.011-.235 2.011-.688s-.757-.68-2.011-.68c-1.274 0-2.008.227-2.008.68m-1.852 0c0-1.164 1.297-2.02 3.848-2.02 2.531 0 3.875.88 3.875 2.02 0 1.153-1.344 1.996-3.863 1.996-2.563 0-3.86-.808-3.86-1.996m4.778-8.418c.02 1.356 2.031 2.153 3.465 2.414a10 10 0 0 0-.903 1.262c-1.117-.215-2.812-.918-3.445-1.832-.691.914-2.234 1.617-3.477 1.832a14 14 0 0 0-.918-1.262c1.516-.261 3.48-1.058 3.48-2.414 0-.129 0-.273-.046-.39h1.887a1.5 1.5 0 0 0-.043.39m-3.91 4.422h2.136v-.496c0-.25 0-.441-.047-.656h1.809c-.047.215-.047.465-.047.656v.496h2.156c.586 0 1.141 0 1.73-.047v1.559c-.589-.047-1.144-.047-1.73-.047h-6.007c-.586 0-1.141 0-1.727.047v-1.559c.586.047 1.14.047 1.727.047"/><path fill="none" stroke="#FFF" stroke-width="2.096" d="M724.293 442.07c0 .438.734.688 2.008.688 1.254 0 2.011-.235 2.011-.688s-.757-.68-2.011-.68c-1.274 0-2.008.227-2.008.68Zm-1.852 0c0-1.164 1.297-2.02 3.848-2.02 2.531 0 3.875.88 3.875 2.02 0 1.153-1.344 1.996-3.863 1.996-2.563 0-3.86-.808-3.86-1.996Zm4.778-8.418c.02 1.356 2.031 2.153 3.465 2.414a10 10 0 0 0-.903 1.262c-1.117-.215-2.812-.918-3.445-1.832-.691.914-2.234 1.617-3.477 1.832a14 14 0 0 0-.918-1.262c1.516-.261 3.48-1.058 3.48-2.414 0-.129 0-.273-.046-.39h1.887a1.5 1.5 0 0 0-.043.39Zm-3.91 4.422h2.136v-.496c0-.25 0-.441-.047-.656h1.809c-.047.215-.047.465-.047.656v.496h2.156c.586 0 1.141 0 1.73-.047v1.559c-.589-.047-1.144-.047-1.73-.047h-6.007c-.586 0-1.141 0-1.727.047v-1.559c.586.047 1.14.047 1.727.047Zm0 0"/><path fill="#00307C" d="M740.367 434.473v1.058h.352c.273 0 .586 0 .86-.047v1.594c-.263-.047-.579-.047-.837-.047h-.375v1.426c0 .402 0 .797.047 1.2h-1.703a11 11 0 0 0 .055-1.2v-3.984a11 11 0 0 0-.055-1.2h1.703c-.047.403-.047.797-.047 1.2m-5.465 7.43c0 .488.793.87 1.989.87 1.218 0 1.976-.382 1.976-.87 0-.524-.758-.856-1.976-.856-1.196 0-1.989.332-1.989.855m-1.773 0c0-1.246 1.402-2.187 3.762-2.187 2.359 0 3.75.941 3.75 2.187 0 1.25-1.391 2.164-3.75 2.164s-3.762-.914-3.762-2.164m.984-6.453v-.32h-.894c-.305 0-.528 0-.844.047v-1.57c.316.046.54.046.844.046h3.457c.304 0 .531 0 .847-.047v1.57c-.316-.046-.543-.046-.847-.046h-.914v.32c0 1.164 1.218 2.164 2.34 2.52-.332.39-.668.844-.918 1.21-.801-.273-1.762-.995-2.204-1.687-.437.762-1.351 1.63-2.21 2.059a9 9 0 0 0-1.11-1.153c1.242-.523 2.453-1.699 2.453-2.949"/><path fill="none" stroke="#FFF" stroke-width="2.096" d="M740.367 434.473v1.058h.352c.273 0 .586 0 .86-.047v1.594c-.263-.047-.579-.047-.837-.047h-.375v1.426c0 .402 0 .797.047 1.2h-1.703a11 11 0 0 0 .055-1.2v-3.984a11 11 0 0 0-.055-1.2h1.703c-.047.403-.047.797-.047 1.2Zm-5.465 7.43c0 .488.793.87 1.989.87 1.218 0 1.976-.382 1.976-.87 0-.524-.758-.856-1.976-.856-1.196 0-1.989.332-1.989.855Zm-1.773 0c0-1.247 1.402-2.188 3.762-2.188 2.359 0 3.75.941 3.75 2.187 0 1.25-1.391 2.164-3.75 2.164s-3.762-.914-3.762-2.164Zm.984-6.454v-.32h-.894c-.305 0-.528 0-.844.047v-1.57c.316.046.54.046.844.046h3.457c.304 0 .531 0 .847-.047v1.57c-.316-.046-.543-.046-.847-.046h-.914v.32c0 1.164 1.218 2.164 2.34 2.52-.332.39-.668.843-.918 1.21-.801-.273-1.762-.995-2.204-1.687-.437.762-1.351 1.63-2.21 2.059a9 9 0 0 0-1.11-1.153c1.242-.523 2.453-1.699 2.453-2.949Zm0 0"/><path fill="#00307C" d="M750.676 434.867v7.43c0 .535 0 1.058.047 1.594h-1.72c.044-.536.06-1.059.06-1.594v-7.43c0-.535-.016-1.058-.06-1.594h1.72c-.047.536-.047 1.059-.047 1.594m-6.45 5.18h1.852v-2.399h-1.851Zm3.458-5.027v6.515h-5.04v-6.515c0-.426 0-.786-.042-1.211h1.671c-.046.425-.046.785-.046 1.21v1.118h1.851v-1.117c0-.426 0-.786-.043-1.211h1.692c-.043.425-.043.785-.043 1.21"/><path fill="none" stroke="#FFF" stroke-width="2.096" d="M750.676 434.867v7.43c0 .535 0 1.058.047 1.594h-1.72c.044-.536.06-1.059.06-1.594v-7.43c0-.535-.016-1.058-.06-1.594h1.72c-.047.536-.047 1.059-.047 1.594Zm-6.45 5.18h1.852v-2.399h-1.851Zm3.458-5.027v6.515h-5.04v-6.515c0-.426 0-.786-.042-1.211h1.671c-.046.425-.046.785-.046 1.21v1.118h1.851v-1.117c0-.426 0-.786-.043-1.211h1.692c-.043.425-.043.785-.043 1.21Zm0 0"/><path fill="#00307C" d="M760.902 434.45v4.257h-1.625v-4.258c0-.402-.011-.797-.058-1.199h1.73c-.047.402-.047.797-.047 1.2m-.859 9.464h-6.277v-2.973h5.433v-.535h-4.449c-.32 0-.668.012-.984.047v-1.426c.359.047.664.047.984.047h6.176a6 6 0 0 0-.059.89v2.106h-5.406v.489h4.582c.363 0 .668 0 1.031-.036v1.438c-.375-.047-.656-.047-1.031-.047m-4.031-9.594c0 1.293 1.152 2.414 2.363 2.875-.363.395-.715.868-.984 1.25-.836-.355-1.805-1.14-2.203-1.879-.426.88-1.31 1.735-2.133 2.2a16 16 0 0 0-1.266-1.094c1.3-.606 2.484-1.961 2.484-3.293a6 6 0 0 0-.054-.926h1.851a5.4 5.4 0 0 0-.058.867"/><path fill="none" stroke="#FFF" stroke-width="2.096" d="M760.902 434.45v4.257h-1.625v-4.258c0-.402-.011-.797-.058-1.199h1.73c-.047.402-.047.797-.047 1.2Zm-.859 9.464h-6.277v-2.973h5.433v-.535h-4.449c-.32 0-.668.012-.984.047v-1.426c.359.047.664.047.984.047h6.176a6 6 0 0 0-.059.89v2.106h-5.406v.489h4.582c.363 0 .668 0 1.031-.036v1.438c-.375-.047-.656-.047-1.031-.047Zm-4.031-9.594c0 1.293 1.152 2.414 2.363 2.875-.363.395-.715.867-.984 1.25-.836-.355-1.805-1.14-2.203-1.879-.426.88-1.31 1.735-2.133 2.2a16 16 0 0 0-1.266-1.094c1.3-.606 2.484-1.961 2.484-3.293a6 6 0 0 0-.054-.926h1.851a5.4 5.4 0 0 0-.058.867Zm0 0"/><path fill="#00307C" d="M727.648 428.668h-1.394c.035-.36.035-.86.035-1.203v-5.106c0-.37 0-.863-.035-1.222h2.973c.289 0 .605 0 .894-.032l-.129 1.262c-.281-.039-.586-.039-.875-.039h-1.508v1.84h1.032c.28 0 .605 0 .894-.04v1.243c-.281-.039-.625-.039-.902-.039h-1.024v2.145c0 .359 0 .82.04 1.191m6.187 0h-1.402c.039-.41.046-.918.046-1.32v-4.45c-.296.235-.78.45-1.18.614l-.382-.89c.707-.302 1.527-.888 1.934-1.438h.941v6.156c0 .45.008.937.043 1.328m5.82-3.734c0-1.227-.136-2.75-1.097-2.75-.91 0-1.086 1.605-1.086 2.863 0 1.215.222 2.652 1.109 2.652.89 0 1.074-1.445 1.074-2.765m1.36.02c0 2.003-.653 3.831-2.434 3.831-1.777 0-2.457-1.797-2.457-3.832 0-1.976.652-3.855 2.434-3.855 1.851 0 2.457 1.828 2.457 3.855m5.652 1.024v1.253c-.262-.039-.559-.039-.781-.039v.579c0 .304 0 .656.039 1.007h-1.332c.039-.343.039-.714.039-1v-.605c-.309.02-.707.02-.996.02h-1.989v-.95l2.028-4.265c.156-.332.324-.735.433-1.055h1.352c-.207.379-.422.82-.57 1.164l-1.32 2.992a7 7 0 0 1-.5.961c.222-.023.484-.023.687-.023h.875v-2.758l1.254-.106v2.864c.23 0 .511 0 .781-.04m-27.063 8.508v1.059h.364c.27 0 .586 0 .86-.047v1.559c-.263-.051-.579-.051-.837-.051h-.387v1.512c0 .402 0 .796.047 1.199h-1.695c.047-.402.059-.797.059-1.2v-4.03c0-.403-.012-.794-.059-1.2h1.695c-.047.406-.047.797-.047 1.2m-3.476 8.25c1.219 0 1.988-.32 1.988-.82 0-.497-.77-.806-1.988-.806-1.277 0-2.024.309-2.024.805 0 .5.747.82 2.024.82m-2.914-5.218h1.941v-1.235h-1.941Zm-.848 4.386c0-1.222 1.29-2.152 3.762-2.152 2.46 0 3.77.93 3.77 2.152 0 1.25-1.297 2.153-3.77 2.153s-3.762-.903-3.762-2.153m4.371-7.367v4.422h-5.105v-4.422c0-.36 0-.656-.043-1.012h1.672c-.047.356-.047.653-.047 1.012v.356h1.941v-.356c0-.36 0-.656-.043-1.012h1.672c-.047.356-.047.653-.047 1.012m7.336 7.535c0 .438.735.688 2.012.688 1.254 0 2.008-.235 2.008-.688s-.754-.68-2.008-.68c-1.277 0-2.012.227-2.012.68m-1.851 0c0-1.164 1.297-2.02 3.851-2.02 2.528 0 3.871.88 3.871 2.02 0 1.153-1.343 1.996-3.86 1.996-2.565 0-3.862-.808-3.862-1.996m4.777-8.418c.023 1.356 2.031 2.153 3.465 2.414a11 11 0 0 0-.903 1.262c-1.117-.215-2.812-.918-3.445-1.832-.687.914-2.234 1.617-3.476 1.832a14 14 0 0 0-.914-1.262c1.511-.261 3.476-1.058 3.476-2.414 0-.129 0-.273-.043-.39h1.883a1.5 1.5 0 0 0-.043.39m-3.906 4.422h2.133v-.496c0-.25 0-.441-.047-.656h1.808c-.047.215-.047.465-.047.656v.496h2.157c.59 0 1.144 0 1.73-.047v1.559c-.586-.047-1.14-.047-1.73-.047h-6.004c-.59 0-1.145 0-1.73.047v-1.559c.585.047 1.14.047 1.73.047m17.058-3.601v1.058h.352c.27 0 .586 0 .855-.047v1.594c-.257-.047-.574-.047-.836-.047h-.37v1.426c0 .402 0 .797.042 1.2h-1.703a11 11 0 0 0 .055-1.2v-3.984a11 11 0 0 0-.055-1.2h1.703c-.043.403-.043.797-.043 1.2m-5.468 7.43c0 .488.793.87 1.988.87 1.219 0 1.976-.382 1.976-.87 0-.524-.757-.856-1.976-.856-1.195 0-1.988.332-1.988.855m-1.77 0c0-1.246 1.399-2.187 3.758-2.187 2.363 0 3.75.941 3.75 2.187 0 1.25-1.387 2.164-3.75 2.164-2.36 0-3.758-.914-3.758-2.164m.98-6.453v-.32h-.89c-.305 0-.531 0-.848.047v-1.57c.317.046.543.046.848.046h3.453c.305 0 .531 0 .848-.047v1.57c-.317-.046-.543-.046-.848-.046h-.914v.32c0 1.164 1.219 2.164 2.34 2.52-.328.39-.668.844-.914 1.21-.805-.273-1.762-.995-2.203-1.687-.442.762-1.356 1.63-2.215 2.059a9.3 9.3 0 0 0-1.106-1.153c1.242-.523 2.45-1.699 2.45-2.949m16.562-.582v7.43c0 .535 0 1.058.047 1.594h-1.719a18 18 0 0 0 .059-1.594v-7.43c0-.535-.012-1.058-.059-1.594h1.719c-.047.536-.047 1.059-.047 1.594m-6.45 5.18h1.852v-2.399h-1.851Zm3.458-5.027v6.515h-5.035v-6.515c0-.426 0-.786-.047-1.211h1.672c-.047.425-.047.785-.047 1.21v1.118h1.851v-1.117c0-.426 0-.786-.043-1.211h1.696c-.047.425-.047.785-.047 1.21m13.219-.569v4.257h-1.625v-4.258a11 11 0 0 0-.055-1.199h1.726c-.046.402-.046.797-.046 1.2m-.856 9.464h-6.281v-2.973h5.433v-.535h-4.449a9 9 0 0 0-.984.047v-1.426c.363.047.668.047.984.047h6.176a6 6 0 0 0-.055.89v2.106h-5.41v.489h4.586c.36 0 .664 0 1.027-.036v1.438c-.375-.047-.656-.047-1.027-.047m-4.031-9.594c0 1.293 1.152 2.414 2.36 2.875-.364.395-.712.868-.985 1.25-.836-.355-1.805-1.14-2.203-1.879-.426.88-1.309 1.735-2.133 2.2-.36-.344-.824-.762-1.266-1.094 1.301-.606 2.485-1.961 2.485-3.293 0-.406-.008-.617-.055-.926h1.852a5.4 5.4 0 0 0-.055.867m-34.371 28.98h-1.395c.04-.359.04-.859.04-1.202v-5.106c0-.37 0-.863-.04-1.222h2.977c.289 0 .605 0 .89-.032L723.77 457c-.282-.04-.586-.04-.875-.04h-1.504v1.84h1.03c.278 0 .606 0 .891-.038v1.242c-.277-.04-.62-.04-.902-.04h-1.02v2.145c0 .36 0 .82.036 1.192"/><path fill="none" stroke="#FFF" stroke-width="1.398" d="M721.426 463.3h-1.395c.04-.359.04-.859.04-1.202v-5.106c0-.37 0-.863-.04-1.222h2.977c.289 0 .605 0 .89-.032L723.77 457c-.282-.04-.586-.04-.875-.04h-1.504v1.84h1.03c.278 0 .606 0 .891-.038v1.242c-.277-.04-.62-.04-.902-.04h-1.02v2.145c0 .36 0 .82.036 1.192Zm0 0"/><path fill="#00307C" d="M727.617 463.3h-1.402c.035-.41.047-.917.047-1.32v-4.453c-.297.239-.785.453-1.184.618l-.379-.891c.707-.3 1.524-.887 1.934-1.438h.937v6.157c0 .449.008.937.047 1.328"/><path fill="none" stroke="#FFF" stroke-width="1.398" d="M727.617 463.3h-1.402c.035-.41.047-.917.047-1.32v-4.453c-.297.239-.785.453-1.184.618l-.379-.891c.707-.3 1.524-.887 1.934-1.438h.937v6.157c0 .449.008.937.047 1.328Zm0 0"/><path fill="#00307C" d="M733.438 459.566c0-1.226-.141-2.75-1.098-2.75-.91 0-1.09 1.606-1.09 2.864 0 1.215.227 2.652 1.11 2.652.89 0 1.077-1.445 1.077-2.766m1.356.02c0 2.004-.648 3.832-2.434 3.832-1.777 0-2.453-1.797-2.453-3.832 0-1.977.649-3.856 2.434-3.856 1.851 0 2.453 1.829 2.453 3.856"/><path fill="none" stroke="#FFF" stroke-width="1.398" d="M733.438 459.566c0-1.226-.141-2.75-1.098-2.75-.91 0-1.09 1.606-1.09 2.864 0 1.215.227 2.652 1.11 2.652.89 0 1.078-1.445 1.078-2.766Zm1.355.02c0 2.004-.648 3.832-2.434 3.832-1.777 0-2.453-1.797-2.453-3.832 0-1.977.649-3.856 2.434-3.856 1.851 0 2.453 1.829 2.453 3.856Zm0 0"/><path fill="#00307C" d="M740.168 457.648c0 .809-.465 1.465-1.098 1.711.668.246 1.239.813 1.239 1.704 0 1.71-1.563 2.687-3.274 2.687a5 5 0 0 1-1.191-.145l-.305-1.035c.332.106.727.145 1.024.145 1.375 0 2.332-.664 2.332-1.633 0-.723-.465-1.195-1.34-1.195-.23 0-.512 0-.742.039v-1.176c.242.043.527.043.742.043.761 0 1.172-.414 1.172-1 0-.5-.372-.879-.93-.879-.559 0-1.106.262-1.477.594l-.699-.828c.625-.598 1.395-.942 2.363-.942 1.328 0 2.184.813 2.184 1.91"/><path fill="none" stroke="#FFF" stroke-width="1.398" d="M740.168 457.648c0 .809-.465 1.465-1.098 1.711.668.246 1.239.813 1.239 1.703 0 1.711-1.563 2.688-3.274 2.688a5 5 0 0 1-1.191-.145l-.305-1.035c.332.106.727.145 1.024.145 1.375 0 2.332-.664 2.332-1.633 0-.723-.465-1.195-1.34-1.195-.23 0-.512 0-.743.039v-1.176c.243.043.528.043.743.043.761 0 1.172-.414 1.172-1 0-.5-.372-.879-.93-.879-.559 0-1.106.262-1.477.594l-.699-.828c.625-.598 1.395-.942 2.363-.942 1.328 0 2.184.813 2.184 1.91Zm0 0"/><path fill="#00307C" d="M722.258 478.367h-5.996v-2.449c0-.285 0-.617-.047-.902h1.738c-.043.273-.043.605-.043.879v.972h4.348c.496 0 .98 0 1.523-.047v1.594c-.472-.047-1.047-.047-1.523-.047m-3.375-8.797h-1.63c-.394 0-.687 0-1.081.047v-1.57c.394.05.687.05 1.082.05h5.207c.394 0 .687 0 1.082-.05v1.57c-.395-.047-.688-.047-1.082-.047h-1.625c.531.903 2.09 1.438 3.375 1.606-.328.39-.7.902-.914 1.27-1.219-.176-2.746-.817-3.445-1.65-.801.833-2.192 1.485-3.41 1.65a13 13 0 0 0-.926-1.259c1.3-.18 2.867-.714 3.367-1.617m3.996 4.782h-1.977v.878c0 .274 0 .653.047.938h-1.785a7 7 0 0 0 .043-.938v-.878h-2.336c-.586 0-1.14 0-1.726.046v-1.57c.585.047 1.14.047 1.726.047h6.008c.586 0 1.14 0 1.726-.047v1.57c-.585-.046-1.14-.046-1.726-.046"/><path fill="none" stroke="#FFF" stroke-width="1.398" d="M722.258 478.367h-5.996v-2.449c0-.285 0-.617-.047-.902h1.738c-.043.273-.043.605-.043.879v.972h4.348c.496 0 .98 0 1.523-.047v1.594c-.472-.047-1.047-.047-1.523-.047Zm-3.375-8.797h-1.63c-.394 0-.687 0-1.081.047v-1.57c.394.05.687.05 1.082.05h5.207c.394 0 .687 0 1.082-.05v1.57c-.395-.047-.688-.047-1.082-.047h-1.625c.531.903 2.09 1.438 3.375 1.606-.328.39-.7.902-.914 1.27-1.219-.176-2.746-.817-3.445-1.65-.801.833-2.192 1.485-3.41 1.65a13 13 0 0 0-.926-1.258c1.3-.18 2.867-.715 3.367-1.618Zm3.996 4.782h-1.977v.878c0 .274 0 .653.047.938h-1.785c.043-.309.043-.652.043-.938v-.878h-2.336c-.586 0-1.14 0-1.726.046v-1.57c.585.047 1.14.047 1.726.047h6.008c.586 0 1.14 0 1.726-.047v1.57c-.585-.046-1.14-.046-1.726-.046Zm0 0"/><path fill="#00307C" d="M734.078 469.5v7.43c0 .535 0 1.058.043 1.593h-1.715c.043-.535.055-1.058.055-1.593v-7.43c0-.535-.012-1.059-.055-1.594h1.715c-.043.535-.043 1.059-.043 1.594m-6.45 5.18h1.852v-2.399h-1.851Zm3.458-5.028v6.516h-5.04v-6.516c0-.425 0-.785-.042-1.21h1.672c-.047.425-.047.785-.047 1.21v1.118h1.851v-1.118c0-.425 0-.785-.043-1.21h1.692c-.043.425-.043.785-.043 1.21"/><path fill="none" stroke="#FFF" stroke-width="1.398" d="M734.078 469.5v7.43c0 .535 0 1.058.043 1.593h-1.715c.043-.535.055-1.058.055-1.593v-7.43c0-.535-.012-1.059-.055-1.594h1.715c-.043.535-.043 1.059-.043 1.594Zm-6.45 5.18h1.852v-2.399h-1.851Zm3.458-5.028v6.516h-5.04v-6.516c0-.425 0-.785-.042-1.21h1.672c-.047.425-.047.785-.047 1.21v1.118h1.851v-1.118c0-.425 0-.785-.042-1.21h1.69c-.042.425-.042.785-.042 1.21Zm0 0"/><path fill="#00307C" d="M744.305 469.082v4.258h-1.625v-4.258c0-.402-.012-.797-.059-1.2h1.727c-.043.403-.043.798-.043 1.2m-.86 9.465h-6.277v-2.973h5.434v-.535h-4.454c-.316 0-.664.012-.98.047v-1.426c.36.047.664.047.98.047h6.18a6 6 0 0 0-.058.89v2.106h-5.41v.488h4.585c.364 0 .668 0 1.028-.035v1.438c-.371-.047-.653-.047-1.028-.047m-4.03-9.594c0 1.293 1.151 2.414 2.362 2.875-.363.395-.715.867-.984 1.25-.836-.355-1.809-1.14-2.203-1.879-.43.88-1.309 1.735-2.133 2.2a16 16 0 0 0-1.266-1.094c1.297-.606 2.485-1.961 2.485-3.293a6 6 0 0 0-.055-.926h1.852a5.4 5.4 0 0 0-.059.867"/><path fill="none" stroke="#FFF" stroke-width="1.398" d="M744.305 469.082v4.258h-1.625v-4.258c0-.402-.012-.797-.059-1.2h1.727c-.043.403-.043.798-.043 1.2Zm-.86 9.465h-6.277v-2.973h5.434v-.535h-4.454c-.316 0-.664.012-.98.047v-1.426c.36.047.664.047.98.047h6.18a6 6 0 0 0-.058.89v2.106h-5.41v.488h4.585c.364 0 .668 0 1.028-.035v1.438c-.371-.047-.653-.047-1.028-.047Zm-4.03-9.594c0 1.293 1.151 2.414 2.362 2.875-.363.395-.714.867-.984 1.25-.836-.355-1.809-1.14-2.203-1.879-.43.88-1.309 1.735-2.133 2.2a16 16 0 0 0-1.266-1.094c1.297-.606 2.485-1.961 2.485-3.293a6 6 0 0 0-.055-.926h1.852a5.4 5.4 0 0 0-.059.867Zm0 0"/><path fill="#00307C" d="M721.426 463.3h-1.395c.04-.359.04-.859.04-1.202v-5.106c0-.37 0-.863-.04-1.222h2.977c.289 0 .605 0 .89-.032L723.77 457c-.282-.04-.586-.04-.875-.04h-1.504v1.84h1.03c.278 0 .606 0 .891-.038v1.242c-.277-.04-.62-.04-.902-.04h-1.02v2.145c0 .36 0 .82.036 1.192m6.191-.001h-1.402c.035-.41.047-.917.047-1.32v-4.453c-.297.239-.785.453-1.184.618l-.379-.891c.707-.3 1.524-.887 1.934-1.438h.937v6.157c0 .449.008.937.047 1.328m5.821-3.735c0-1.226-.141-2.75-1.098-2.75-.91 0-1.09 1.606-1.09 2.864 0 1.215.227 2.652 1.11 2.652.89 0 1.077-1.445 1.077-2.766m1.356.02c0 2.004-.648 3.832-2.434 3.832-1.777 0-2.453-1.797-2.453-3.832 0-1.977.649-3.856 2.434-3.856 1.851 0 2.453 1.829 2.453 3.856m5.375-1.938c0 .809-.465 1.465-1.098 1.711.668.246 1.239.813 1.239 1.704 0 1.71-1.563 2.687-3.274 2.687a5 5 0 0 1-1.191-.145l-.305-1.035c.332.106.727.145 1.024.145 1.375 0 2.332-.664 2.332-1.633 0-.723-.465-1.195-1.34-1.195-.23 0-.512 0-.742.039v-1.176c.242.043.527.043.742.043.761 0 1.172-.414 1.172-1 0-.5-.372-.879-.93-.879-.559 0-1.106.262-1.477.594l-.699-.828c.625-.598 1.395-.942 2.363-.942 1.328 0 2.184.813 2.184 1.91m-17.91 20.719h-5.996v-2.449c0-.285 0-.617-.047-.902h1.738c-.043.273-.043.605-.043.879v.972h4.348c.496 0 .98 0 1.523-.047v1.594c-.472-.047-1.047-.047-1.523-.047m-3.375-8.797h-1.63c-.394 0-.687 0-1.081.047v-1.57c.394.05.687.05 1.082.05h5.207c.394 0 .687 0 1.082-.05v1.57c-.395-.047-.688-.047-1.082-.047h-1.625c.531.903 2.09 1.438 3.375 1.606-.328.39-.7.902-.914 1.27-1.219-.176-2.746-.817-3.445-1.65-.801.833-2.192 1.485-3.41 1.65a13 13 0 0 0-.926-1.259c1.3-.18 2.867-.714 3.367-1.617m3.996 4.782h-1.977v.878c0 .274 0 .653.047.938h-1.785a7 7 0 0 0 .043-.938v-.878h-2.336c-.586 0-1.14 0-1.726.046v-1.57c.585.047 1.14.047 1.726.047h6.008c.586 0 1.14 0 1.726-.047v1.57c-.585-.046-1.14-.046-1.726-.046m11.199-4.852v7.43c0 .535 0 1.058.043 1.593h-1.715c.043-.535.055-1.058.055-1.593v-7.43c0-.535-.012-1.059-.055-1.594h1.715c-.043.535-.043 1.059-.043 1.594m-6.45 5.18h1.852v-2.399h-1.851Zm3.458-5.028v6.516h-5.04v-6.516c0-.425 0-.785-.042-1.21h1.672c-.047.425-.047.785-.047 1.21v1.118h1.851v-1.118c0-.425 0-.785-.043-1.21h1.692c-.043.425-.043.785-.043 1.21m13.219-.57v4.258h-1.625v-4.258c0-.402-.012-.797-.059-1.2h1.727c-.043.403-.043.798-.043 1.2m-.86 9.465h-6.277v-2.973h5.434v-.535h-4.454c-.316 0-.664.012-.98.047v-1.426c.36.047.664.047.98.047h6.18a6 6 0 0 0-.058.89v2.106h-5.41v.488h4.585c.364 0 .668 0 1.028-.035v1.438c-.371-.047-.653-.047-1.028-.047m-4.03-9.594c0 1.293 1.151 2.414 2.362 2.875-.363.395-.715.867-.984 1.25-.836-.355-1.809-1.14-2.203-1.879-.43.88-1.309 1.735-2.133 2.2a16 16 0 0 0-1.266-1.094c1.297-.606 2.485-1.961 2.485-3.293a6 6 0 0 0-.055-.926h1.852a5.4 5.4 0 0 0-.059.867"/><path stroke="#231916" stroke-width="2.796" d="m746.96 455.535 24.15 13.723"/><path fill="#1D2088" d="M551.367 348.598h-3.004c.082-.641.082-1.645.082-2.286v-8.457c0-.687 0-1.574-.082-2.246h5.403c.52 0 1.191 0 1.746-.05l-.285 2.484c-.52-.07-1.141-.07-1.68-.07h-2.266v2.687h1.762c.422 0 1.008 0 1.426-.07v2.5c-.485-.067-1.024-.067-1.473-.067h-1.715v3.34c0 .672 0 1.528.086 2.235m11.039 0h-2.922c.086-.692.086-1.68.086-2.368v-7.183c-.504.351-1.379.789-1.996 1.008l-.824-1.864c1.395-.554 2.754-1.457 3.39-2.5h2.18v10.575c0 .734 0 1.742.086 2.332m9.965-6.344c0-2.852-.52-4.516-1.644-4.516-1.125 0-1.696 1.63-1.696 4.547 0 2.836.57 4.297 1.696 4.297s1.644-1.41 1.644-4.328m2.817-.067c0 4.008-1.34 6.61-4.461 6.61-3.004 0-4.516-2.567-4.516-6.61 0-3.894 1.512-6.644 4.516-6.644 3.152 0 4.46 2.75 4.46 6.644m7.551 6.411h-2.922c.086-.692.086-1.68.086-2.368v-7.183c-.504.351-1.379.789-1.996 1.008l-.824-1.864c1.39-.554 2.754-1.457 3.39-2.5h2.18v10.575c0 .734 0 1.742.086 2.332m-56.628 14.215h-8.68v1.84h11.625v3.468H517.43v1.813h8.48c1.434 0 2.64 0 3.649-.075v3.649c-1.008-.074-2.368-.074-3.676-.074h-12.528v-11.301c0-.856 0-1.988-.128-2.84h12.882c.809 0 1.989 0 3.098-.078v3.676c-1.11-.079-2.289-.079-3.098-.079m1.79 16.004h-13.336c-1.31 0-2.543 0-3.852.102v-3.773c1.309.097 2.543.097 3.851.097h13.336c1.309 0 2.54 0 3.848-.097v3.773c-1.308-.102-2.539-.102-3.848-.102m24.809-16.984v15.828c0 1.13 0 2.313.102 3.371h-4.204c.102-.933.13-2.242.13-3.37v-15.829c0-1.031-.028-2.312-.13-3.371h4.204c-.102 1.105-.102 2.441-.102 3.371m-15.398-2.289h8.933c-.101.805-.101 2.062-.101 3.02v6.917h-7.399v3.172h1.059c2.441 0 5.836-.152 8.176-.527v3.469c-2.164.48-5.711.605-8.38.605h-4.804v-10.09h7.394v-2.992h-4.878c-.832 0-1.688 0-2.516.098v-3.774c.828.102 1.684.102 2.516.102m38.121 2.289v15.828c0 1.13 0 2.238.101 3.371h-4.277a39 39 0 0 0 .125-3.37v-15.829a39 39 0 0 0-.125-3.371h4.277c-.101 1.133-.101 2.238-.101 3.371m-4.957 10.14v3.524c-1.965.453-5.184.68-7.727.68h-5.207v-13.84c0-1.031 0-1.836-.101-2.871h4.253c-.101 1.035-.101 1.84-.101 2.87v10.267h1.11c2.288 0 5.683-.227 7.773-.63m27.55-10.14v15.828c0 1.13 0 2.238.102 3.371h-4.152c.101-1.133.125-2.242.125-3.37v-15.829a38 38 0 0 0-.125-3.371h4.152c-.102 1.133-.102 2.238-.102 3.371m-14.062 1.36v2.765h7.219v3.55h-7.22v3.247h.981c2.868 0 6.09-.176 8.204-.555v3.422c-1.915.477-5.512.652-8.329.652h-4.832v-13.562c0-.856 0-2.238-.125-3.094h8.98c.833 0 1.813 0 2.645-.097v3.773a31 31 0 0 0-2.644-.102Zm27.929 2.089c-1.761 0-3.32.047-3.32.399 0 .355 1.559.406 3.32.406 1.762 0 3.298-.05 3.298-.406 0-.352-1.536-.399-3.297-.399m5.234 15.801h-13.437v-5.46h12.003v-.606h-9.312c-.703 0-1.984.027-2.692.101v-2.77c.805.102 1.989.102 2.692.102h13.664c-.102.633-.125 1.711-.125 2.34v3.047h-12.05v.601h9.257c.805 0 2.488 0 3.297-.074v2.817c-.832-.098-2.469-.098-3.297-.098m1.008-18.746h-12.684c-.879 0-1.785 0-2.668.098v-2.84c.883.101 1.79.101 2.668.101h3.977v-.129c0-.578 0-1.082-.102-1.66h5.031c-.101.528-.101 1.184-.101 1.66v.13h3.879c.879 0 1.785 0 2.664-.102v2.84c-.879-.098-1.762-.098-2.664-.098m-8.758 6.289c-3.398-.328-5.586-1.309-5.586-2.945 0-2.012 3.32-3.043 8.102-3.043 4.78 0 8.101 1.031 8.101 3.043 0 1.664-2.289 2.668-5.812 2.945v.578h4.355c1.305 0 2.54 0 3.848-.098v2.844c-1.309-.101-2.543-.101-3.848-.101h-13.437c-1.309 0-2.543 0-3.852.101v-2.844c1.309.098 2.543.098 3.852.098h4.277Zm0 0"/><path fill="#00914A" d="M742.418 47.547v20.55h36.07v12.794h-36.07v32.714h-13.629V34.86h55.047v12.688Zm0 0"/><path fill="#C4000B" d="m800.184 110.348.058-30.18-9.445-.059v-6.593c2.617 0 5.348-.657 7.547-2.258 1.543-1.188 3.086-3.387 3.086-5.524h6.597v44.614Zm0 0"/><path fill="#FFF" d="M692.23 135.5h122.165V27.547H692.23Zm0 0"/></svg>